<svg width="120" height="22" viewBox="0 0 120 22" fill="none" xmlns="http://www.w3.org/2000/svg">
<path d="M5.80316 21.7067L5.80316 3.95978H0C0 1.77285 1.77285 0 3.95978 0H16.044C16.044 2.18692 14.2712 3.95978 12.0842 3.95978H10.0702L10.0702 21.7067H5.80316Z" fill="white"/>
<path d="M22.1436 22C20.5126 22 19.0903 21.6578 17.8766 20.9734C16.6628 20.289 15.7146 19.3504 15.0319 18.1576C14.3492 16.9647 14.0078 15.5959 14.0078 14.0511C14.0078 12.8583 14.1974 11.7632 14.5767 10.766C14.956 9.7687 15.487 8.9083 16.1698 8.18479C16.8525 7.44172 17.6585 6.87464 18.5877 6.48355C19.536 6.07291 20.56 5.86759 21.66 5.86759C22.6841 5.86759 23.6323 6.06313 24.5047 6.45422C25.3771 6.82575 26.1262 7.3635 26.752 8.06746C27.3968 8.75187 27.8899 9.56338 28.2312 10.502C28.5726 11.4406 28.7243 12.4672 28.6864 13.5818L28.6579 14.8724H16.568L15.9137 12.3206H25.3296L24.8745 12.8485V12.2032C24.8366 11.6753 24.6659 11.1962 24.3624 10.766C24.078 10.3358 23.7082 10.0034 23.253 9.7687C22.7979 9.53404 22.2858 9.41672 21.7169 9.41672C20.8824 9.41672 20.1713 9.58293 19.5834 9.91536C19.0144 10.2478 18.5783 10.7366 18.2748 11.3819C17.9714 12.0272 17.8197 12.8094 17.8197 13.7285C17.8197 14.6671 18.0093 15.4786 18.3886 16.163C18.7869 16.8474 19.3368 17.3852 20.0385 17.7762C20.7592 18.1478 21.6031 18.3335 22.5703 18.3335C23.2341 18.3335 23.8409 18.226 24.3909 18.0109C24.9409 17.7958 25.5288 17.4243 26.1546 16.8963L28.089 19.6828C27.539 20.1912 26.9321 20.6214 26.2684 20.9734C25.6046 21.3058 24.9219 21.56 24.2202 21.736C23.5185 21.912 22.8263 22 22.1436 22Z" fill="white"/>
<path d="M38.2996 22C36.8583 22 35.5687 21.648 34.4309 20.9441C33.293 20.2401 32.3922 19.2819 31.7284 18.0696C31.0836 16.8572 30.7612 15.4786 30.7612 13.9338C30.7612 12.4085 31.0836 11.0397 31.7284 9.82736C32.3922 8.59543 33.293 7.62749 34.4309 6.92353C35.5687 6.21957 36.8583 5.86759 38.2996 5.86759C39.6461 5.86759 40.8788 6.12179 41.9977 6.63021C43.1166 7.13862 43.989 7.84258 44.6148 8.74209L42.396 11.4993C42.1305 11.1277 41.7986 10.7953 41.4003 10.502C41.0021 10.1891 40.5659 9.94469 40.0918 9.7687C39.6366 9.59271 39.1625 9.50471 38.6695 9.50471C37.8919 9.50471 37.1997 9.70026 36.5928 10.0913C36.0049 10.4629 35.5403 10.9811 35.1989 11.6459C34.8576 12.3108 34.6869 13.0734 34.6869 13.9338C34.6869 14.7746 34.8576 15.5275 35.1989 16.1923C35.5593 16.8376 36.0429 17.3656 36.6497 17.7762C37.2566 18.1673 37.9393 18.3629 38.6979 18.3629C39.191 18.3629 39.6556 18.2944 40.0918 18.1576C40.528 18.0011 40.9357 17.7762 41.315 17.4829C41.7133 17.1896 42.0736 16.8376 42.396 16.427L44.5864 19.1842C43.9416 20.025 43.0503 20.7094 41.9124 21.2374C40.7745 21.7458 39.5703 22 38.2996 22Z" fill="white"/>
<path d="M47.1748 21.7067V1.99253C47.1748 0.892779 48.0664 0.00125318 49.1661 0.00125318C50.2659 0.00125318 51.1574 0.89278 51.1574 1.99253V9.35805L50.3609 9.71003C50.5695 9.00607 50.9393 8.37055 51.4703 7.80347C52.0203 7.21684 52.6746 6.74754 53.4331 6.39556C54.1917 6.04358 54.9882 5.86759 55.8227 5.86759C56.9606 5.86759 57.9088 6.10224 58.6674 6.57155C59.4449 7.04085 60.0233 7.75459 60.4026 8.71276C60.8009 9.65137 61 10.8149 61 12.2032V21.7067H56.9605V12.5259C56.9605 11.8219 56.8657 11.2353 56.6761 10.766C56.4864 10.2967 56.1925 9.95446 55.7942 9.73936C55.4149 9.50471 54.9408 9.40694 54.3719 9.44605C53.9167 9.44605 53.49 9.52427 53.0918 9.6807C52.7125 9.81758 52.3806 10.0229 52.0961 10.2967C51.8306 10.5704 51.6125 10.8833 51.4419 11.2353C51.2901 11.5873 51.2143 11.9686 51.2143 12.3792V21.7067H49.223C48.3506 21.7067 47.6679 21.7067 47.1748 21.7067Z" fill="white"/>
<path d="M67.8581 21.7067L67.858 6.01904C67.858 3.75499 69.6934 1.91962 71.9575 1.91962L71.9575 21.7067H67.8581ZM65 9.57562C65 7.51817 66.6679 5.85029 68.7253 5.85029H75.0753C75.0753 7.90773 73.4074 9.57562 71.35 9.57562H65Z" fill="#7F56D9"/>
<path d="M83.3224 22C82.0522 22 80.9071 21.648 79.887 20.944C78.867 20.24 78.0586 19.2818 77.462 18.0693C76.8654 16.8569 76.5671 15.4684 76.5671 13.904C76.5671 12.3396 76.8654 10.9609 77.462 9.768C78.0779 8.55556 78.9055 7.60711 79.9447 6.92267C80.984 6.21867 82.1677 5.86667 83.4957 5.86667C84.2463 5.86667 84.9295 5.984 85.5454 6.21867C86.1805 6.43378 86.729 6.73689 87.1909 7.128C87.6721 7.51911 88.0762 7.96889 88.4034 8.47733C88.7306 8.98578 88.9615 9.53333 89.0963 10.12L88.2302 9.97333V8.22461C88.2302 7.10055 89.1414 6.18933 90.2655 6.18933C91.3895 6.18933 92.3007 7.10056 92.3007 8.22461V19.6425C92.3007 20.7825 91.3766 21.7067 90.2366 21.7067C89.0966 21.7067 88.1725 20.7825 88.1725 19.6425V17.9813L89.0963 17.8933C88.9423 18.4409 88.6921 18.9591 88.3457 19.448C87.9992 19.9369 87.5662 20.3769 87.0466 20.768C86.5462 21.1396 85.9784 21.4427 85.3433 21.6773C84.7082 21.8924 84.0345 22 83.3224 22ZM83.8421 18.392C84.6119 18.392 85.2855 18.2062 85.8629 17.8347C86.4403 17.4631 86.883 16.9449 87.1909 16.28C87.5181 15.5956 87.6817 14.8036 87.6817 13.904C87.6817 13.024 87.5181 12.2516 87.1909 11.5867C86.883 10.9218 86.4403 10.4036 85.8629 10.032C85.2855 9.64089 84.6119 9.44533 83.8421 9.44533C83.0915 9.44533 82.4275 9.64089 81.8501 10.032C81.292 10.4036 80.8493 10.9218 80.5221 11.5867C80.1949 12.2516 80.0314 13.024 80.0314 13.904C80.0314 14.8036 80.1949 15.5956 80.5221 16.28C80.8493 16.9449 81.292 17.4631 81.8501 17.8347C82.4275 18.2062 83.0915 18.392 83.8421 18.392Z" fill="#7F56D9"/>
<path d="M98.4893 21.7067C97.3573 21.7067 96.4396 20.789 96.4396 19.657V2.04971C96.4396 0.917687 97.3573 0 98.4893 0C99.6214 0 100.539 0.917686 100.539 2.04971V19.657C100.539 20.789 99.6214 21.7067 98.4893 21.7067Z" fill="#7F56D9"/>
<path d="M108.597 17.0427L107.384 13.6107L114.058 6.7485C114.405 6.39101 114.883 6.18933 115.381 6.18933C117.049 6.18933 117.862 8.22406 116.655 9.37346L108.597 17.0427ZM106.749 21.7067C105.617 21.7067 104.699 20.789 104.699 19.657V2.04971C104.699 0.917688 105.617 0 106.749 0C107.881 0 108.799 0.917687 108.799 2.04971V19.657C108.799 20.789 107.881 21.7067 106.749 21.7067ZM115.968 21.7067C115.379 21.7067 114.822 21.4355 114.459 20.9713L109.549 14.696L112.436 12.3493L117.461 18.5889C118.47 19.8425 117.578 21.7067 115.968 21.7067Z" fill="#7F56D9"/>
</svg>
